<svg xmlns="http://www.w3.org/2000/svg" viewBox="0 0 140.041 104.051">
    <g transform="translate(-1117.149 -157)">
        <path className="a"
              d="M204.2,23.3a3.532,3.532,0,0,0-2-2.3L152.2.3A3.606,3.606,0,0,0,148,1.5L133.8,20.8,103.9,33.3a1.507,1.507,0,0,0-.8,2,1.416,1.416,0,0,0,1.4.9,1.268,1.268,0,0,0,.6-.1l29.7-12.4,49.6,20.7L135.2,64.6,121,45.8a2.651,2.651,0,0,0-.6-.5l-54-22.4a1.466,1.466,0,0,0-1.8.5,1.5,1.5,0,0,0,0,1.8L79,44.7h0V79.1a3.476,3.476,0,0,0,2.2,3.2l52,21.5a3.079,3.079,0,0,0,1.3.3,2.768,2.768,0,0,0,1.3-.3l52-21.5a3.476,3.476,0,0,0,2.2-3.2V44.6l13.8-18.3A3.816,3.816,0,0,0,204.2,23.3ZM186.8,79.1a.55.55,0,0,1-.3.5l-52,21.5a.3.3,0,0,1-.4,0l-52-21.5a.55.55,0,0,1-.3-.5V44.7h0a1.531,1.531,0,0,0-.2-1.3L70.1,27.7l48.6,20.2,14.7,19.4a1.681,1.681,0,0,0,1.8.5l51.7-21.2Zm14.5-54.6L187.8,42.4,137.2,21.3,150.5,3.2c.1-.2.3-.2.5-.2l50,20.7q.3.15.3.3C201.3,24.1,201.4,24.4,201.3,24.5Z"
              transform="translate(1052.85 156.952)"/>
        <path className="a"
              d="M133.9,72.2v23a1,1,0,0,0,2,0v-23a.945.945,0,0,0-1-1A1,1,0,0,0,133.9,72.2Z"
              transform="translate(1052.85 156.952)"/>
        <path className="a"
              d="M124.4,62.5l-35-14.9a.985.985,0,1,0-.8,1.8l34.9,14.9a.6.6,0,0,0,.4.1,1.025,1.025,0,0,0,.5-1.9Z"
              transform="translate(1052.85 156.952)"/>
    </g>
</svg>