<?xml version="1.0" encoding="utf-8"?>
<!-- Generator: Adobe Illustrator 27.4.0, SVG Export Plug-In . SVG Version: 6.00 Build 0)  -->
<svg version="1.2" baseProfile="tiny" id="katman_1"
	 xmlns="http://www.w3.org/2000/svg" xmlns:xlink="http://www.w3.org/1999/xlink" x="0px" y="0px" viewBox="0 0 738 738"
	 overflow="visible" xml:space="preserve">
<path d="M304.76,0v1.04c15.62,11.23,36.34,25.87,43.42,44.52c5.02,13.23-4.17,32.81-20.63,24.93
	c-21.27-10.19,3.28-43.12-19.68-53.92c6.67,14.3,4.77,20.25,1.28,35.2c-0.84,3.62,0.23,10.01-2.68,12.59
	c-3.98,3.52-11.31,4.65-16.2,6.49c-13.63,5.14-31.02,11.29-39.94,23.39c-6.92,9.4-12.44,20.24-16.8,31.05
	c-4.24,10.5-5.26,19.86-16.77,24.14c-20.11,7.48-40.42,14.29-61.09,20.07c-7.36,2.06-18.84,1.92-18.59,11.69
	c0.39,15.09,7.94,35.97,21.7,43.58c10.52,5.82,21.81,4.75,33.13,6.75c15.71,2.78,31.7,8.65,45.56,16.53
	c12.38,7.04,43.47,24.52,34.74,42.88c-10.58,22.27-44.69,36.35-63.73,50.6c-38.12,28.53-73.46,61.8-95.52,104.7
	c-8.7,16.92-26.3,50.1-16.39,69.37c5.19,10.08,13.78,19.08,22.86,25.72c57.26,41.83,131.43,3.92,179.11-34.21
	c11.45-9.16,22.61-18.5,33.12-28.74c8.69-8.48,17.04-17.52,25.91-25.75c5.08-4.71,12.31-9.36,15.49-15.71
	c3.51-7.01,1.23-20.4,0.32-27.95c-2.94-24.57-8.68-47.71-18.79-70.4c-20.83-46.76-60.25-85.08-107.82-103.95
	c-12.37-4.91-25.24-8.15-38.31-10.54c-3.18-0.58-11.46-1.46-10-6.61c1.47-5.16,9.1-4.18,13.1-4.18h38.31h71.44
	c31.8,0,58.79-1.12,81.6,24.85c15.19,17.29,14.42,38.7,12.7,60.05c-3.09,38.46-14.83,77.58-15.62,115.96
	c11.29-6.44,16.39-17.77,22-28.99c11.88-23.75,19.89-48.95,26.82-74.54c5.69-21.02,11.02-42.17,16.85-63.16
	c2.57-9.24,8.05-21.45,7.56-31.06c-0.33-6.4-4.47-12.87-6.96-18.64c-6.53-15.13-13.73-30.21-21.9-44.52
	c-24.53-42.99-50.72-85.83-87.85-119.24C341.79,20.73,324.24,5.61,304.76,0 M95.62,526.99h-1.04c1.2,28.04,13.81,56.11,31.33,77.65
	c37.48,46.09,99.44,69.15,158.14,65.13c35.06-2.4,68.83-13.92,101.46-26.23c33.44-12.61,65.97-27.44,100.43-37.27
	c14.57-4.16,31.27-9.8,46.59-7.39c14.67,2.31,21.82,12.21,34.17,18.18c-16.79-31.55-54.88-40.95-86.97-28.99
	c16.9-32.57,54.56-29.72,83.86-22.78c-9.8-23.15-44.11-40.18-68.33-40.38c20.77-20.82,59.34-7.64,82.83-2.07
	c-7.17-18.92-28.7-32.93-46.59-40.38v-1.04l40.38,2.23l27.95,11.23l-11.39-36.24c40.19,40.71,56.11,101.33,29.64,154.27
	c-9.03,18.05-23.54,29.55-34.82,45.56c12.98-7.39,23.66-19.18,32.48-31.06c56.07-75.47,13.78-189.19-78.03-209.73
	c-51.29-11.48-95.23,9.25-135.63,39.55c-54.03,40.52-98.71,95.31-163.58,119.78c-15.97,6.02-32.51,11.3-49.7,12.06
	C149.78,590.78,104.92,567.19,95.62,526.99 M581.19,658.48l1.04,1.04L581.19,658.48 M563.59,671.94
	c-12.92,9.84-25.08,25.58-25.84,42.45c-0.6,13.27,9.22,31.39,24.76,20.03c14.45-10.56-1.69-28.54-2.01-41.77
	C560.34,685.84,564.67,678.09,563.59,671.94z"/>
</svg>
