<?xml version="1.0" encoding="UTF-8"?>
<svg id="katman_2" data-name="katman 2" xmlns="http://www.w3.org/2000/svg" viewBox="0 0 363.58 500">
  <defs>
    <style>
      .cls-1 {
        fill: #010101;
      }
    </style>
  </defs>
  <g id="katman_1" data-name="katman 1">
    <g>
      <path class="cls-1" d="m264.13,103.63c.86-.98-.6-4.02-1.45-3.01-.55.65.73,3.83,1.45,3.01Z"/>
      <path class="cls-1" d="m298.11,100.53c-3.77,1.13-4.48,7.92-.71,6.29,1.26-.55,2.83-6.92.71-6.29Z"/>
      <polygon class="cls-1" points="267.12 155.91 260.24 154.81 267.63 157.95 291.07 167.47 298.37 168.65 290.05 165.68 267.12 155.91"/>
      <path class="cls-1" d="m258.18,47.86c4.54,3.61,12.65,1.81,18.11,2.67,2.49.39,4.26,1.45,6.09,3.16.57.54,1.84,2.42,2.79,2.18.93-.23,1.06-2.52,1.21-3.25.63-3.11,1.44-6.52,1.61-9.68.49-9.12-1.26-18.53-.4-27.52.37-3.84,3.24-6.74,3.67-10.05.23-1.75-2.75-1.58-3.76-1.43h0c-12.92,1.92-23.35,12.01-30.31,22.4-1.54,2.3-4.33,4.69-5,7.43-.82,3.37,3.34,11.98,5.99,14.09Zm4.58-17.65c4.58-6.64,11.78-19.49,20.6-21,2.44-.42,2.07,10.03,1.55,11.82-.69,2.38-3.2,3.81-3.76,6.12-.57,2.35.76,9-.81,10.84-1.39,1.62-5.74-1.94-6.99.08-.49.78,5.83,4.16,3.63,4.97-1.46.54-4.09-1.35-5.78-1.31-3.33.08-7.31,1.85-10.04-.96-2.98-3.07-.35-7.74,1.6-10.56Z"/>
      <path class="cls-1" d="m174.83,306.96c-9.1-11.68-22.28-19.09-30.55-31.64-3.78-5.73-6.35-12.6-7.45-19.36-.24-1.49.64-6.76-2.21-5.61h0c-4.01,1.62-7.81,10.19-10.07,13.76-9.08,14.37-19.29,31.6-16.71,49.43.66,4.55,2.18,9.17,4.29,13.25,1.24,2.4,4.07,5.77,4.12,8.52.06,3-7.35-3.64-7.67-2.96-.59,1.24,1.69,4.2,2.33,5.14,3.2,4.6,7.57,8.32,12.52,10.93,16.51,8.69,41.94,7.35,58.6-.55,8.29-3.93,3.75-15.07,1.5-22.1-2.08-6.53-4.44-13.34-8.7-18.81Z"/>
      <path class="cls-1" d="m358.49,419.03c-2.41-5.11-5.42-10-9.83-13.66-4.68-3.88-10.37-6.57-15.29-10.16-4.98-3.63-9.47-8.02-14.77-11.23-2.21-1.34-11.47-3.67-11.97-6.28-.37-1.94,4.52-.78,5.34-.53,4.02,1.25,7.8,2.91,11.72,4.42.92.36,2.8,1.7,3.79,1.42.88-.25-.04-1.8-.27-2.2-3.27-5.74-12.89-10.7-19.32-11.59-4.43-.61-11.7-.11-15.15-3.36-6.46-6.1,7.86-13.69-.15-21.16-3.37-3.14-9.29-5.1-13.75-6.02-1.95-.4-5.06-.06-5.43-2.72-2.31-16.83,14.91-32.19,22.41-45.34,11.2-19.62,21.37-40.71,13.34-63.7-3.23-9.24-9.26-16.47-14.64-24.46-4.48-6.68-9.26-13.48-12.48-20.89-.33-.77-1.76-7.16-2.19-7.16-.76,0-.07,3.18-.03,3.59.41,3.97,1.44,7.84,2.33,11.72,3.68,16,10.82,31.84,11.44,48.41.3,7.83-.52,15.55-3.22,22.93-.49,1.35-1.91,6.36-3.9,6.24-1.35-.08-1.03-2.84-1.03-3.69-.01-4.53.12-8.44-1.47-12.74-.18-.5-2.08-5.39-2.88-4.23-1.42,2.04.97,10.36,1.22,12.9.73,7.48-.31,16.16-3.64,22.93-.92,1.86-3.46,8.18-5.93,8.18-1.52,0-1.07-2.69-1.07-3.59.04-4.02-.26-7.77-.98-11.72-.09-.48-.82-4.3-1.72-3.89-1.14.52-.28,7.68-.49,8.98-1.42,8.64-2.48,17.9-8.21,25-1.6,1.98-5.89,7.43-8.9,6.16-1.54-.65-5.06-7.83-5.85-7.23-1.88,1.45-1.29,9.99-4.42,9.51-2.89-.44-7.51-6.96-9.68-8.92-12.36-11.2-20.08-22.58-20.38-39.82-.11-6.23.93-12.27,2.07-18.35.13-.69,1.79-5.13,1.01-5.42-1.14-.42-3.74,4.13-4.29,4.91-3.57,5.02-5.81,11.2-6.47,17.33-.06.55-.71,5.22-1.61,4.61-2.11-1.44-2.83-6.41-3.25-8.69-1.55-8.45-2.6-18.72.13-27.01,1.09-3.31,2.58-6.47,3.94-9.68.31-.72,1.4-2.4,1-3.22-.48-.99-3.4,2.83-3.72,3.22-2.93,3.57-5.4,7.49-7.25,11.71-.3.68-1.54,3.34-2.67,2.59-2.14-1.42-.83-10.43-.83-12.78,0-9.16,2.1-19.02,5.46-27.52,1.9-4.8,5.72-10.57,6.39-15.68.1-.76-7.04,7.11-8.33,8.51-.5.55-2.43,3.03-3.21,1.85-1.88-2.84.19-8.05.71-10.99,2.04-11.68,9.54-24.66,18.36-32.54,11.65-10.41,28.62-17.49,44.33-13.82,10.46,2.45,20.07,8.34,30.07,12.16,3.95,1.51,8.02,2.52,12.23,2.98,1.45.16,3.17-.56,4.55-.1,1.67.55,2.01,2.94,2.74,4.31,2.56,4.85,7.82,9.61,11.33,3.06,1.43-2.67,4-6.92,2.54-10.08-.76-1.67-5.2-2.16-6.76-3.75-4.61-4.69-8.32-11.25-10.93-17.26-2.52-5.81-8.11-15.85-5.79-22.36,1.39-3.89,7.45-5.34,7.29-10.26-.15-4.71-5.68-10.05-8.18-13.76-4.53-6.73-5.38-15.74-10.78-21.88-6.73-7.65-21.28.48-26.98-8.18-7.13-10.85-8.21-26.31-13.27-38.22-.88-2.07-4.13-12.02-7.23-10.72h.01c-4.67,1.97-9.08,8.7-12.51,12.28-8.25,8.61-15.53,17.11-20.78,28-3.85,7.98-7.92,15.91-11.62,23.95-1.37,2.99-1.97,7.06-3.92,9.67-3.82,5.12-13.26,7.22-18.64,10.51-7.34,4.49-12.38,11.74-17.39,18.54-.89,1.21-4.8,5.85-4.58,7.3.13.85,3.86-2.94,4.14-3.23,4.5-4.59,9.51-8.48,15.28-11.33,1.12-.56,6.22-3.27,7.02-1.16.45,1.19-1.24,2.59-1.92,3.32-2.69,2.92-5.52,5.66-8.66,8.09-8.46,6.55-15.22,14.98-20,24.52-1,1.99-4.33,6.65-3.97,8.89.18,1.15,3.31-2.48,3.6-2.77,3.54-3.61,7.63-6.79,11.71-9.76.58-.42,4.79-3.91,5.38-2.64,1.05,2.28-4.1,8.18-5.3,9.85-4.86,6.77-9.99,13.85-13.56,21.4-.77,1.64-3.43,6.07-2.93,7.87.31,1.11,8.87-6.21,9.3-4.11.42,2.1-2.2,5.94-2.86,7.96-2.11,6.37-2.77,13.19-2.77,19.87,0,1.54-.65,4.94.21,6.27.55.85,1.85-1.88,2.04-2.2.78-1.32,5.95-9.4,7.9-7.27,1.67,1.82-2.2,9.41-3.02,11.34-3.8,9.04-7.4,17.64-8.47,27.45-.37,3.42,2.14,11.62.45,14.23-.94,1.45-2.81.97-4.21.74-4.02-.65-7.63-1.15-11.72-1.14-12.97.03-27.52,4.93-39.24,10.2-24.96,11.21-48.45,27.72-63.67,50.96C3.61,321.21-2.09,353.17.67,380.81c3.03,30.32,27.63,55.5,53.44,68.41,25.78,12.89,56.2,20.59,85.1,18.7,29.93-1.95,58.54-10.51,87.14-19.09,22.64-6.79,44.51-20.6,68.8-20.6,27.09,0,50.96,23.57,40.83,50.94-2.06,5.58-5.26,11.25-9.74,15.22-1.16,1.02-6.65,3.38-6.65,4.96,0,1.04,2.06.56,2.57.43,2.85-.69,5.64-2.01,8.15-3.51,26.29-15.67,41.91-48.13,28.17-77.24ZM246.24,99.69c4.16-1.95,9.16-3.2,13.75-3.49h0c8.17-.51,10.47,12.2,1.53,12.93-5.22.42-4.19-4.71-7.75-6.26-2.88-1.26-8.42,1.82-10.64-.02-1.1-.92,2.56-2.9,3.11-3.16Zm-31.97-52.67c3.43-11.46,7.64-22.86,16.16-31.6,1.5-1.53,3.36-5.17,5.28-6.02h0c1.75-.78,3.06,1.73,3.63,2.97,1.61,3.5,1.75,7.66.21,11.21-1.72,3.94-5.76,5.21-8.5,8.2-.44.48-2.33,2.62-1.73,3.41.43.58,2.55-2.18,2.79-2.44,2.01-2.2,5.44-4.88,8.44-2.69,4.55,3.33-2.17,5.71-2.66,8.38-.34,1.83,3.8,1.53,2.78,3.43-.77,1.44-5.62,2.46-5.62,3.84s8.6,3.73,4.9,6.16c-2.9,1.91-8.23.79-11.55,1.43-4.13.8-8.3,2.9-11.72,5.27-.82.57-2.98,2.66-4.06,1.73-2.19-1.87.97-11.01,1.66-13.31Zm34.51,277.22c-.26,2.71-2.17,11.98-4.59,13.34-2.17,1.22-5.28.61-7.64,1.11-5.67,1.18-11.27,2.53-16.82,3.99-22.03,5.81-42.67,15-65.74,17.24-6.55.64-14.66.38-20.89-1.7-1.98-.66-6.81-3.8-8.5-3.74-.52.02,1.6,1.95,1.87,2.12,1.17.74,8.73,2.98,7.9,4.67-1.21,2.48-7.51,1.1-9.43.51-8.15-2.49-15.58-9.28-19.87-16.65-3.98-6.82-4.59-16.2-4.59-23.95,0-16.9,4.75-33.67,12.74-48.41,3.1-5.72,5.86-11.36,10.62-15.97,3.79-3.66,7.44-6.99,10.7-11.04.99-1.23,2.45-4.07,4.16-4.33h0c1.56-.25,1.99,2.24,2.46,3.3,1.58,3.57,3.29,7.1,4.84,10.7.4.94,1.35,2.47.6,3.48-.66.89-1.73-.32-2.13.25-.69,1.01,1.04,4.01,1.53,4.93,2.38,4.51,5.45,9.09,9,12.74,13.63,14.03,26.72,28.93,36.6,45.86,2.82,4.84,4.48,10.48,6.03,15.8.43,1.49-.35,4.37,1.27,5.35,1.57.95,6.44-1.9,8.07-2.46,6.33-2.2,13-2.63,19.36-4.75,1.84-.61,5.66-.94,6.71-2.72,2.45-4.14-1.85-12.15-2.72-16.31-.37-1.77-2.25-5.98,1.62-5.01,5.57,1.39,7.35,8.14,11.12,11.63,2.37,2.19,4.04-5.01,5.95-4.24.94.37-.19,3.6-.25,4.24Zm102.51,123.23c-1.05.73-2.25-1.31-2.7-1.96-2.08-3.04-3.88-6.22-6.11-9.16-8.85-11.65-22.19-18.87-36.63-21.24-10.83-1.78-20.42-.11-31.09,1.45-1.14.17-9.58,3.37-9.58,2.74,0-1.3,3.05-2.58,3.97-3.11,4.55-2.61,8.71-5.55,13.76-7.22.99-.33,6.08-1.41,6.08-2.64,0-1.3-3.11-2.37-4.05-2.8-4.1-1.86-8.51-3.55-11.63-6.93-.64-.69-3.84-3.93-2.99-5,.58-.74,4.53,1.23,5.45,1.36,4.96.69,9.78,1.01,14.78,1.12,1.66.04,4.59.85,5.44-1.15.93-2.17-1.79-5.41-2.97-7.01-4.31-5.86-10.72-9.78-14.92-15.8-1-1.44-4.9-7.6-2.53-9.1h.01c2.07-1.32,4.21,2.72,5.15,3.91,4.16,5.29,9.99,9.2,15.43,13.05,6.05,4.28,12.87,6.41,19.35,9.85,15.21,8.08,30.87,19.89,35.05,37.32,1.32,5.51,1.65,10.67,1.65,16.31,0,1.46.48,5.03-.94,6.02Z"/>
      <path class="cls-1" d="m311.21,305.83h0c-9.7,1.71-27.44,5.29-31.4,15.06-1.13,2.78-2.57,9.27-.69,12.01,1.5,2.18,7.28,1.48,9.67,1.85,3.81.6,6.33,3.52,8.44,6.52,2.31,3.29,6.26,8.99,4.98,13.25-.41,1.36-5.97,6.21-5.97,6.22.33.85,4.92,1.16,5.79,1.28,3.77.54,7.36.71,10.7,2.75,2.1,1.28,6.62,5.58,9.14,5.45,1.57-.08,2.14-3.35,2.55-4.49,1.77-4.84,3.81-9.49,5.68-14.27,3.97-10.14,7.1-21.77,4.47-32.61-1.79-7.37-6.69-13.15-14.71-13.25-2.84-.04-5.86-.26-8.66.23Z"/>
    </g>
  </g>
</svg>