<?xml version="1.0" encoding="utf-8"?>
<!-- Generator: Adobe Illustrator 27.4.0, SVG Export Plug-In . SVG Version: 6.00 Build 0)  -->
<svg version="1.2" baseProfile="tiny" id="Ñëîé_4"
	 xmlns="http://www.w3.org/2000/svg" xmlns:xlink="http://www.w3.org/1999/xlink" x="0px" y="0px" viewBox="0 0 2000 2000"
	 overflow="visible" xml:space="preserve">
<g>
	<path fill="#231F20" d="M1987.264,1184.537c-17.471,12.064-38.61,18.001-59.897,19.332c-21.368,1.426-42.942-1.342-64.163-5.549
		c-37.247-7.663-73.867-19.304-111.492-28.445c15.673-5.926,30.366-15.028,43.216-26.208c26.433-22.749,45.674-53.123,57.907-85.414
		c12.119-32.511,17.128-67.13,17.367-101.389c-0.046-34.402-8.597-68.481-22.064-99.218l-6.165-14.079l-5.812,13.147
		c-10.56,23.893-28.041,44.64-49.998,58.242c-15.463,9.862-32.359,16.688-49.297,23.923c9.803-13.307,18.093-27.888,24.745-43.167
		c8.45-19.534,14.383-40.115,18.042-60.932c3.595-20.847,4.705-41.936,4.22-62.789c-0.561-20.854-2.15-41.535-5.243-61.918
		c-3.202-20.382-8.432-40.309-14.051-59.913c-11.702-39.202-22.437-77.48-31.527-117.595l-3.768-16.646l-11.918,15.215
		c-10.907,13.919-25.095,24.9-39.141,35.279c-14.152,10.308-28.564,20.317-43.919,28.722c-15.353,8.395-31.417,15.422-48.223,20.376
		c-11.365,3.375-23.062,5.649-35.236,6.703c-2.092-18.638-5.329-37.094-9.765-55.166c-4.834-20.063-10.837-39.732-17.275-59.141
		c-6.345-19.445-13.809-38.449-22.379-56.91c-8.45-18.503-17.714-36.545-26.36-54.759c-8.653-18.202-16.864-36.535-24.146-55.272
		l-4.116-10.604l-5.807,10.132c-11.943,20.818-28.891,38.154-46.464,53.959c-17.727,15.758-35.609,30.92-53.118,46.778
		c-17.699,15.628-35.911,30.808-54.484,45.717c-14.119,11.311-28.295,22.556-43.043,33.412c-1.069-1.791-2.064-3.641-3.161-5.413
		c-6.216-9.767-12.84-19.174-19.733-28.299c-13.749-18.279-28.845-35.102-44.234-51.226c-30.823-32.239-63.911-60.738-93.42-91.805
		c-14.736-15.528-28.546-31.657-40.837-48.698c-12.21-17.059-23.117-35.096-30.224-54.959l-11.37-31.81l-7.27,31.539
		c-4.78,20.718-13.365,41.017-24.947,59.501c-11.479,18.585-25.37,35.738-40.569,51.537c-30.418,31.798-66.808,56.969-99.998,86.898
		c-16.59,14.975-32.401,31.186-46.749,49.063c-8.77,10.798-16.978,22.238-24.501,34.231c-15.022-11.033-29.451-22.467-43.822-33.972
		c-18.573-14.909-36.78-30.089-54.478-45.717c-17.515-15.858-35.396-31.02-53.117-46.778c-17.572-15.804-34.528-33.14-46.463-53.959
		l-5.808-10.132l-4.122,10.604c-7.277,18.737-15.485,37.07-24.146,55.272c-8.644,18.214-17.91,36.256-26.359,54.759
		c-8.564,18.461-16.029,37.465-22.375,56.91c-6.443,19.41-12.438,39.078-17.28,59.141c-4.431,18.073-7.671,36.528-9.764,55.166
		c-12.171-1.054-23.872-3.328-35.231-6.703c-16.812-4.954-32.875-11.982-48.223-20.376c-15.361-8.405-29.772-18.414-43.926-28.722
		c-14.039-10.379-28.227-21.36-39.135-35.279l-11.924-15.215l-3.768,16.646c-9.083,40.115-19.818,78.393-31.525,117.595
		c-5.614,19.604-10.85,39.532-14.051,59.913c-3.087,20.383-4.682,41.064-5.243,61.918c-0.485,20.852,0.623,41.941,4.225,62.789
		c3.659,20.817,9.592,41.399,18.041,60.932c6.655,15.279,14.943,29.86,24.741,43.167c-16.932-7.234-33.829-14.06-49.298-23.923
		c-21.952-13.601-39.433-34.349-49.997-58.242l-5.808-13.147l-6.174,14.079c-13.463,30.737-22.008,64.815-22.054,99.218
		c0.24,34.259,5.247,68.878,17.36,101.389c12.233,32.291,31.481,62.665,57.908,85.414c12.845,11.175,27.524,20.269,43.198,26.195
		c-37.637,9.108-74.257,20.688-111.482,28.359c-21.22,4.217-42.782,6.973-64.15,5.588c-21.277-1.313-42.439-7.174-59.909-19.256
		L0,1175.759l4.527,15.238c18.264,61.552,50.648,119.73,95.91,166.147c22.592,23.163,48.156,43.131,75.252,60.414
		c27.096,17.312,55.953,31.721,85.895,43.092c59.966,22.679,124.613,31.289,187.86,27.155
		c53.603-3.624,106.446-17.053,154.384-40.057c-12.451,11.768-25.21,23.116-38.415,33.817
		c-20.534,16.331-42.302,30.975-65.425,42.019c-23.031,11.211-47.133,18.846-71.422,23.068l-27.193,4.73l20.613,20.894
		c14.521,14.72,30.04,28.6,46.783,41.135c16.693,12.582,34.591,23.927,53.879,33.034c19.224,9.178,39.941,16.117,61.594,19.073
		c21.597,3.053,44.039,2.169,65.39-3.132c21.43-5.102,41.501-14.74,59.416-26.815c17.892-12.229,33.505-27.249,46.858-43.78
		c13.297-16.611,24.374-34.779,32.961-54.028c3.052-7.054,5.87-14.257,8.277-21.59c8.78,22.603,22.231,42.411,37.289,59.548
		c16.938,19.393,35.824,35.957,54.638,52.191c18.852,16.187,38.009,31.797,56.443,48.021c9.187,8.116,18.196,16.423,26.324,25.295
		c8.118,8.705,15.641,18.33,19.591,27.851l7.174,17.281l10.056-17.469c5.081-8.838,13.485-17.014,22.287-24.625
		c8.93-7.598,18.517-14.89,28.196-22.231c19.441-14.62,39.293-29.557,58.541-45.922c19.281-16.318,38.009-34.143,54.471-54.964
		c13.566-16.972,25.255-36.524,33.098-58.036c1.808,4.948,3.791,9.838,5.878,14.652c8.584,19.249,19.664,37.417,32.961,54.028
		c13.353,16.53,28.96,31.551,46.852,43.78c17.915,12.075,37.991,21.713,59.415,26.815c21.358,5.301,43.8,6.185,65.392,3.132
		c21.652-2.956,42.376-9.895,61.593-19.073c19.289-9.108,37.186-20.452,53.885-33.034c16.742-12.535,32.263-26.415,46.783-41.129
		l20.583-20.876l-27.17-4.754c-24.661-4.317-49.15-12.153-72.554-23.568c-23.506-11.227-45.674-26.038-66.664-42.461
		c-10.907-8.699-21.546-17.794-31.973-27.184c48.746,24.091,102.938,37.869,157.872,40.998
		c62.972,3.488,127.259-6.261,186.407-30.201c29.536-11.978,57.891-27.051,84.416-44.923c26.517-17.859,51.425-38.348,73.374-61.851
		c43.973-47.121,75.116-105.314,93.186-166.458l4.509-15.259L1987.264,1184.537z M1795.243,927.079
		c16.011-15.58,30.737-32.228,43.577-50.53c4.55,26.143,3.006,52.973,0.472,78.771c-2.897,30.737-10.946,60.655-21.642,88.846
		c-10.638,28.228-24.278,55.166-43.026,78.13c-13.721,16.781-30.47,30.991-50.351,41.422
		c-39.611-8.383-80.214-15.245-121.704-15.293c-11.352,0.037-22.729,0.476-34.081,1.609c-8.254,0.937-16.458,2.326-24.615,3.964
		c5.144-4.99,10.186-10.086,15.01-15.369c26.857-29.277,48.568-62.871,64.894-98.645c12.319-9.725,24.89-18.532,38.163-26.302
		c21.67-13.176,45.011-23.757,68.197-36.81C1753.266,963.789,1775.411,946.354,1795.243,927.079z M1165.194,1297.731
		c-20.97-3.022-41.992-3.399-62.688-1.497c2.151-0.842,4.311-1.667,6.454-2.54c35.272-14.236,69.347-32.234,101.491-53.868
		c32.029-21.75,61.867-47.657,87.364-77.803c25.38-30.222,46.725-64.109,62.954-100.296c8.056-18.113,14.876-36.781,19.969-55.901
		c5.154-19.099,8.688-38.555,11.215-57.999c3.379-27.328,4.723-54.601,4.911-81.781l0.434,1.737
		c26.748-3.246,52.976-11.109,78.15-21.276c12.639-5.031,25.027-10.751,37.105-17.136c12.126-6.298,24.049-13.095,35.574-20.593
		c23.072-14.951,45.029-32.075,64.917-51.838c13.639-13.431,26.238-28.293,37.077-44.551c0.079,0.23,0.178,0.454,0.261,0.683
		c3.298,8.707,5.951,17.879,8.153,27.244c4.448,18.757,6.802,38.349,7.647,58.058c1.544,39.51-4.349,79.353-15.01,117.406
		c-10.712,38.119-27.028,74.353-46.738,107.754c-19.847,33.304-42.571,64.407-69.261,90.963
		c-13.375,13.205-27.759,25.175-42.952,35.726c-15.607,10.492-32.23,20.941-48.556,31.038
		c-32.814,20.235-66.146,39.431-100.414,56.697c-53.146,26.527-108.59,48.609-166.852,61.657
		C1172.671,1298.908,1168.939,1298.267,1165.194,1297.731z M661.198,642.638c7.157,7.976,14.817,15.375,22.809,22.184
		c15.663,13.172,32.441,24.464,49.984,33.836c8.77,4.707,17.595,9.165,26.593,13.159c9.038,3.923,18.144,7.564,27.29,10.969
		c14.486,5.148,29.12,9.543,43.789,13.495c-10.074,14.521-19.677,29.482-28.583,45.022c-10.782,18.88-20.259,38.767-27.93,59.537
		c-7.591,20.788-13.297,42.466-16.738,64.533c-6.797,44.15-5.374,89.478,3.876,133.041c9.101,43.602,26.313,84.971,48.807,122.307
		c22.558,37.375,50.396,70.765,81.414,100c11.536,10.625,23.472,20.769,35.99,30.059c-10.301-5.484-20.528-11.057-30.594-16.847
		c-31.91-18.479-62.745-38.371-91.315-60.922c-28.663-22.401-55.245-47.084-79.15-74.163
		c-24.049-26.943-44.868-56.956-61.371-89.542c-16.361-32.61-29.743-67.23-38.844-103.577
		c-9.175-36.31-13.245-74.375-11.621-112.246c1.234-37.931,8.734-75.441,19.516-111.598
		C643.082,695.064,652.24,669.027,661.198,642.638z M998.685,491.743c8.894,31.238,21.495,61.45,36.985,89.673
		c20.784,38.449,46.039,73.462,70.358,107.999c24.306,34.56,47.911,68.873,66.118,105.413
		c18.199,36.48,31.039,75.011,36.366,115.138c5.495,40.079,4.311,81.449-2.719,121.706c-3.511,20.159-8.313,40.164-14.452,59.844
		c-6.304,19.604-13.617,39.018-22.442,57.816c-17.527,37.605-39.992,73.48-67.946,104.576
		c-12.406,13.998-26.055,26.862-40.771,38.277c-19.847,10.403-39.991,20.442-60.382,30.389c-9.574-1.583-18.738-4.934-27.535-9.288
		c-0.664-0.33-1.327-0.667-1.996-1.002c-8.848-4.558-17.315-10.083-25.392-15.876c-16.778-12.315-32.155-26.648-46.028-42.294
		c-28-31.098-50.494-66.971-68.169-104.542c-35.133-75.265-51.482-158.324-43.296-240.179c4.047-40.781,15.32-80.873,32.818-118.744
		c8.644-18.991,18.927-37.305,29.869-55.295c11.102-17.884,23.003-35.35,35.151-52.704c24.426-34.595,50.059-68.638,72.124-105.519
		c11.045-18.419,21.197-37.511,30.074-57.334C991.46,510.604,995.222,501.238,998.685,491.743z M1269.874,695.994
		c17.55-9.372,34.322-20.664,49.99-33.835c7.962-6.78,15.587-14.138,22.716-22.078c8.787,26.395,17.646,52.568,25.306,79.471
		c10.364,36.345,17.357,74.033,18.042,112.051c1.074,37.959-3.567,76.031-13.292,112.263c-9.638,36.276-23.521,70.773-40.294,103.27
		c-16.922,32.474-38.072,62.353-62.355,89.208c-24.158,26.993-50.912,51.615-79.699,73.983
		c-28.708,22.519-59.633,42.406-91.63,60.896c-2.417,1.389-4.893,2.705-7.323,4.071c5.533-4.678,11.004-9.442,16.349-14.366
		c31.07-29.235,58.938-62.625,81.644-99.966c22.612-37.312,40.116-78.616,49.8-122.255c9.628-43.638,12.04-89.048,6.563-133.905
		c-5.522-44.893-20.18-88.642-41.124-127.674c-8.244-15.621-17.298-30.56-26.794-45.046c12.799-3.557,25.57-7.463,38.227-11.958
		c9.145-3.404,18.248-7.045,27.279-10.968C1252.284,705.161,1261.114,700.701,1269.874,695.994z M985.377,1326.689
		c-0.177,0.018-0.359,0.042-0.542,0.065l0.046-0.173C985.045,1326.618,985.217,1326.652,985.377,1326.689z M1005.38,1325.276
		l0.114,0.434c-0.579-0.042-1.155-0.089-1.734-0.123C1004.298,1325.488,1004.842,1325.386,1005.38,1325.276z M1589.57,637.778
		c19.934-1.207,39.489-6.533,57.714-14.608c18.189-8.141,35.442-18.804,50.054-32.812c10.506-10.102,19.669-21.796,27.142-34.613
		c13.068,30.779,20.03,64.279,22.305,97.814c1.485,19.887,1.777,39.757,2.201,59.372c0.543,19.604,0.675,39.108-0.566,58.412
		c-1.178,19.31-3.197,38.361-5.901,57.157c-2.668,18.797-6.231,37.371-11.433,55.474c-7.109,25.583-17.801,49.988-32.227,73.127
		c-17.877,9.675-35.533,20.881-51.884,34.4c-1.988,1.667-3.92,3.422-5.852,5.172c8.899-25.525,15.96-51.579,21.812-77.745
		c8.823-39.567,14.482-79.647,17.146-120.37c1.308-20.382,1.48-40.993-0.366-61.834c-1.955-20.807-5.987-41.96-15.589-62.435
		l-10.748-22.902l-14.348,22.579c-13.667,21.495-30.057,41.311-47.934,59.93c-17.468,17.955-36.521,34.591-56.627,49.959
		c11.118-29.465,16.785-61.375,18.535-93.09c0.988-18.874,0.587-37.765-0.978-56.515
		C1564.145,637.471,1576.995,638.496,1589.57,637.778z M1266.421,523.475c11.489-4.547,22.607-9.932,33.474-15.799
		c21.665-11.828,42.211-25.783,61.454-41.558c19.413-15.552,36.688-34.083,51.15-54.872c12.37-17.595,23.072-36.233,32.956-55.142
		c6.419,14.839,12.129,29.99,17.075,45.417c6.139,19.092,11.042,38.625,15.838,58.035c4.682,19.457,9.577,38.706,14.388,57.882
		c4.723,19.215,8.701,38.536,12.314,57.822c7.03,38.602,13.708,76.95,16.704,115.834c2.719,33.883,2.623,67.943-0.876,102.839
		c-6.637,4.831-13.325,9.59-20.162,14.156c-10.941,7.192-22.064,14.154-33.383,20.847c-22.615,13.095-45.925,25.046-70.472,35.138
		c0.056-10.939-0.058-21.861-0.328-32.77c-1.336-38.642-3.687-77.31-8.247-116.058c-4.448-38.684-12.725-77.315-25.022-113.742
		l-10.547-31.238l-17.595,27.35c-9.651,14.997-21.482,28.852-34.792,41.452c-7.716,7.451-15.998,14.403-24.557,21.101
		c2.453-15.358,2.94-31.245,1.214-47.055c-2.392-23.403-9.554-46.353-19.53-67.513c-2.577-5.437-5.327-10.779-8.208-16.034
		C1255.067,527.763,1260.779,525.667,1266.421,523.475z M805.115,507.659c14.039-16.217,28.759-32.111,43.388-48.456
		c29.252-32.723,58.417-66.93,87.827-100.518c14.646-16.9,29.131-34.013,42.297-52.499c7.859-11.198,15.382-22.855,21.985-35.208
		c4.783,13.949,10.946,27.397,18.207,40.004c11.535,20.234,25.484,38.542,40.037,55.849c29.211,34.573,60.816,65.592,91.566,96.07
		c30.742,30.432,60.537,61.033,82.946,96.548c5.454,8.936,10.638,18.055,15.01,27.599c4.321,9.554,8.084,19.421,11.04,29.629
		c4.606,15.994,7.081,32.812,7.815,50.077c-3.334,2.486-6.69,4.948-10.085,7.381c-7.647,5.443-15.589,10.521-23.597,15.575
		c-7.975,5.119-16.133,10.014-24.433,14.733c-11.786,7.098-23.968,13.571-36.071,20.535c-13.01-19.346-26.741-37.907-40.461-56.091
		c-25.552-33.936-50.95-67.089-72.701-102.332c-21.698-35.178-39.796-72.662-50.533-112.989l-10.918-41.052l-7.786,41.052
		c-7.774,40.97-22.906,80.643-43.548,117.277c-20.465,36.804-45.491,70.93-70.942,104.806
		c-12.793,16.907-25.667,33.848-37.991,51.344c-0.835,1.16-1.635,2.356-2.464,3.523c-13.702-8.077-27.582-15.358-40.953-23.41
		c-8.295-4.719-16.458-9.614-24.438-14.733c-8.003-5.054-15.937-10.132-23.591-15.575c-4.648-3.333-9.222-6.732-13.749-10.172
		c0.937-17.378,3.51-34.201,8.129-50.254c2.985-10.238,6.763-20.139,11.05-29.765c4.362-9.607,9.519-18.802,14.983-27.821
		C778.167,540.806,791.201,523.976,805.115,507.659z M478.226,691.094c2.996-38.884,9.667-77.232,16.704-115.834
		c3.613-19.285,7.592-38.607,12.308-57.822c4.819-19.175,9.712-38.425,14.388-57.882c4.801-19.41,9.7-38.943,15.846-58.035
		c4.938-15.427,10.65-30.579,17.075-45.417c9.883,18.91,20.58,37.547,32.955,55.142c14.457,20.788,31.739,39.32,51.145,54.872
		c19.247,15.775,39.792,29.73,61.457,41.558c10.862,5.867,21.985,11.252,33.475,15.799c5.865,2.28,11.799,4.448,17.835,6.303
		c-2.846,4.93-5.567,9.955-8.117,15.098c-5.276,10.52-9.638,21.589-13.171,32.911c-3.618,11.299-6.094,22.998-7.385,34.778
		c-1.847,15.747-1.418,31.628,1.085,46.943c-7.053-5.679-13.868-11.558-20.304-17.778c-13.313-12.599-25.141-26.454-34.79-41.452
		l-17.755-27.579l-10.392,31.467c-5.958,18.037-11.462,36.757-15.727,55.691c-4.23,18.979-7.597,38.177-10.113,57.47
		c-4.99,38.601-7.871,77.155-9.764,115.698c-1.503,38.56-1.36,77.379,2.875,116.363c2.236,19.45,5.488,38.931,10.375,58.07
		c4.83,19.162,11.399,37.901,19.242,56.092c15.789,36.339,36.814,70.417,61.966,100.777c25.267,30.3,54.975,56.315,86.901,78.127
		c32.036,21.695,66.043,39.709,101.245,53.947c2.704,1.102,5.424,2.151,8.14,3.21c-20.373-2.522-41.135-2.81-61.926-0.518
		c-58.303-12.789-114.204-33.489-167.892-58.62c-35.133-16.635-69.3-35.284-102.782-55.258
		c-16.807-10.034-33.224-20.188-49.791-31.027c-15.503-10.227-30.422-22.1-44.182-35.208c-27.525-26.373-50.985-57.57-71.472-91.109
		c-20.316-33.649-37.095-70.289-48.115-108.89c-10.97-38.536-17.047-78.916-15.572-118.973c0.783-19.988,3.138-39.844,7.551-58.865
		c2.293-9.755,5.07-19.357,8.448-28.458c10.834,16.14,23.392,30.891,36.975,44.239c19.916,19.734,41.855,36.876,64.938,51.803
		c11.518,7.505,23.46,14.267,35.567,20.588c12.073,6.397,24.478,12.093,37.1,17.141c25.175,10.162,51.379,18.061,78.121,21.33
		l0.881-3.51c-24.718-10.108-48.201-22.108-70.953-35.286c-11.335-6.668-22.448-13.66-33.395-20.841
		c-6.825-4.547-13.502-9.301-20.121-14.121C475.597,759.096,475.505,725.006,478.226,691.094z M251.581,771.341
		c-1.247-19.304-1.11-38.807-0.571-58.412c0.423-19.615,0.72-39.485,2.206-59.372c2.27-33.535,9.238-67.035,22.3-97.814
		c7.477,12.818,16.641,24.511,27.147,34.613c14.606,14.008,31.858,24.671,50.054,32.812c18.224,8.075,37.774,13.401,57.714,14.608
		c12.569,0.718,25.427-0.306,37.539-3.528c-1.567,18.75-1.966,37.64-0.978,56.515c1.756,31.756,7.438,63.714,18.584,93.213
		c-40.816-31.232-77.532-67.743-104.479-110.085l-14.462-22.707l-10.885,23.032c-9.803,20.753-13.857,42.224-15.812,63.325
		c-1.829,21.142-1.555,42.048-0.142,62.705c2.91,41.288,8.94,81.875,18.16,121.92c5.865,25.231,12.805,50.353,21.466,74.981
		c-2.11-1.92-4.23-3.822-6.402-5.649c-16.343-13.519-34.007-24.725-51.878-34.4c-14.433-23.139-25.123-47.544-32.229-73.127
		c-5.202-18.103-8.77-36.676-11.433-55.474C254.771,809.703,252.759,790.651,251.581,771.341z M225.377,1122.296
		c-18.751-22.964-32.39-49.902-43.035-78.13c-10.689-28.191-18.738-58.109-21.642-88.846c-2.531-25.797-4.081-52.635,0.481-78.771
		c12.833,18.296,27.558,34.949,43.57,50.53c19.836,19.275,41.982,36.71,65.105,49.795c23.191,13.053,46.526,23.634,68.197,36.81
		c13.502,7.899,26.279,16.878,38.797,26.81c17.127,37.581,40.244,72.808,69.101,103.019c3.406,3.6,6.905,7.111,10.467,10.562
		c-8.256-1.661-16.556-3.069-24.908-4.016c-11.352-1.143-22.734-1.572-34.081-1.609c-41.49,0.047-82.094,6.905-121.704,15.274
		C255.845,1153.287,239.09,1139.078,225.377,1122.296z M448.729,1456.753c-59.765-1.094-118.616-12.893-174.625-32.521
		c-28.046-9.796-55.302-22.053-81.288-36.794c-25.97-14.772-50.46-32.249-73.347-51.796c-22.791-19.633-44.308-41.286-62.35-66.063
		c-9.123-12.305-17.218-25.431-24.426-39.078c-4.762-9.503-9.163-19.238-12.959-29.225c16.343,7.988,34.059,12.548,51.723,14.903
		c22.522,3.011,45.205,3.006,67.67,1.779c44.988-2.556,89.04-10.39,131.822-19.963c42.798-9.631,85.107-19.304,127.7-23.827
		c27.176-2.711,54.587-3.103,81.682,0.984c4.3,3.422,8.69,6.75,13.194,9.955c16.293,11.669,33.287,23.178,50.556,33.646
		c34.624,21.106,71.043,39.245,108.698,54.041c37.632,14.816,76.498,26.543,116.164,33.672c5.574,1,11.177,1.907,16.784,2.745
		c-12.833,4.04-25.37,9.071-37.408,15.039c-24.821,12.286-46.995,28.963-67.117,47.131c-20.133,18.249-38.523,37.835-57.25,56.738
		c-1.955,1.978-3.956,3.898-5.922,5.861C562.063,1450.022,505.196,1458.043,448.729,1456.753z M800.05,1423.078
		c-6.973,12.506-11.673,27.155-12.489,42.301c-0.429,7.514,0.131,15.209,1.514,22.388c0.514,2.894,1.291,6.499,2.126,10.034
		c0.194,0.701,0.418,1.384,0.612,2.085c-5.013,10.319-10.878,20.156-17.195,29.557c-5.431,8.171-11.353,15.952-17.607,23.351
		c-6.162,7.475-12.742,14.526-19.648,21.111c-27.382,26.533-60.325,45.794-95.202,52.144c-34.869,6.659-70.935,0.403-105.09-13.77
		c-26.645-11.169-51.78-27.291-75.601-45.807c16.835-7.046,32.796-15.915,47.727-25.865c22.592-15.222,43.273-32.422,63.282-50.082
		c20.184-17.454,39.569-35.651,60.056-52.408c20.42-16.808,41.571-32.576,63.27-46.707c21.642-14.215,43.662-26.886,66.105-37.759
		c22.414-10.952,45.794-19.351,70.107-24.486c24.283-5.154,49.401-7.323,74.873-6.923c22.992,0.353,46.217,2.635,69.729,5.662
		c-16.543,2.567-32.898,6.557-49.161,11.109c-23.723,7.088-47.425,15.764-69.741,28.681
		C835.687,1380.678,814.125,1397.789,800.05,1423.078z M1177.531,1482.19c-0.904,5.403-2.151,10.74-3.727,15.994
		c-6.061,21.111-17.047,40.946-30.526,59.643c-13.589,18.673-29.965,35.91-47.372,52.474c-17.453,16.564-36.158,32.257-54.53,49.174
		c-9.191,8.482-18.349,17.213-27.005,26.956c-5.431,6.185-10.826,12.724-15.583,20.099c-5.315-6.101-11.078-11.311-16.721-16.46
		c-9.586-8.328-19.35-15.999-29.045-23.681c-19.413-15.279-38.746-30.394-56.49-47.265c-17.767-16.766-33.836-35.428-46.795-55.65
		c-12.908-20.235-22.649-41.948-27.496-64.101c-0.653-2.763-1.155-5.544-1.658-8.318c-0.395-2.606-0.857-5.138-1.247-8.448
		c-0.6-5.178-0.823-10.078-0.393-15.068c0.839-9.903,3.698-19.693,8.448-29.13c9.472-18.89,25.112-36.386,42.947-51.678
		c17.933-15.303,38.266-28.853,60.206-39.002c21.838-10.209,45.389-17.495,69.455-18.785c24.021,1.473,47.55,8.83,69.352,19.068
		c21.911,10.162,42.221,23.728,60.034,39.133c17.732,15.355,33.126,33.092,41.947,51.984c4.436,9.401,6.985,19.026,7.34,28.576
		C1178.811,1472.713,1178.445,1476.63,1177.531,1482.19z M1489.682,1540.119c15.275,10.144,31.6,19.199,48.819,26.373
		c-23.816,18.508-48.939,34.62-75.573,45.789c-34.162,14.173-70.221,20.428-105.091,13.77c-34.881-6.35-67.824-25.612-95.207-52.144
		c-6.906-6.585-13.484-13.636-19.647-21.111c-6.254-7.399-12.177-15.18-17.608-23.351c-5.258-7.828-10.209-15.957-14.622-24.416
		c1.361-5.549,2.516-11.156,3.303-16.836c1.064-6.797,1.475-15.473,0.762-22.979c-1.305-15.491-6.299-30.313-13.599-42.848
		c-7.249-12.64-16.549-23.197-26.606-32.158c-9.945-9.105-20.934-16.428-32.062-22.919c-22.437-12.823-46.161-21.483-69.919-28.558
		c-21.299-5.931-42.741-10.91-64.594-12.831c25.7-3.48,51.046-6.062,76.147-6.332c25.867-0.306,51.374,2.049,76.048,7.451
		c24.694,5.361,48.462,13.995,71.318,25.125c22.866,11.044,45.331,23.832,67.453,38.099c22.168,14.186,43.81,29.965,64.726,46.807
		c20.974,16.789,40.857,35.043,61.481,52.586C1445.666,1507.39,1466.737,1524.732,1489.682,1540.119z M1882.722,1336.296
		c-22.295,19.994-46.23,37.961-71.673,53.287c-25.451,15.303-52.237,28.134-79.846,38.518
		c-55.16,20.782-113.376,33.618-172.684,35.331c-57.427,1.947-115.379-6.248-172.339-22.966c-4.7-4.448-9.364-8.948-13.972-13.514
		c-19.253-18.956-38.174-38.584-58.78-56.88c-20.609-18.202-43.165-34.936-68.329-47.354c-9.514-4.696-19.322-8.848-29.338-12.412
		c9.171-1.285,18.311-2.828,27.388-4.626c39.072-7.734,77.177-20.292,113.947-35.779c36.813-15.471,72.29-34.12,106.084-55.367
		c16.968-10.685,33.213-21.752,49.724-33.929c2.354-1.769,4.624-3.642,6.926-5.473c27.045-4.053,54.398-3.645,81.517-0.942
		c42.594,4.524,84.901,14.186,127.706,23.804c42.787,9.537,86.851,17.302,131.832,19.863c22.46,1.238,45.138,1.238,67.654-1.737
		c17.626-2.344,35.322-6.839,51.648-14.79c-9.145,24.327-21.63,47.259-36.63,68.088
		C1925.938,1294.309,1904.94,1316.25,1882.722,1336.296z"/>
</g>
</svg>
