<?xml version="1.0" encoding="utf-8"?>
<!-- Generator: Adobe Illustrator 27.4.0, SVG Export Plug-In . SVG Version: 6.00 Build 0)  -->
<svg version="1.2" baseProfile="tiny" id="katman_1"
	 xmlns="http://www.w3.org/2000/svg" xmlns:xlink="http://www.w3.org/1999/xlink" x="0px" y="0px" viewBox="0 0 500 500"
	 overflow="visible" xml:space="preserve">
<g>
	<path fill="#3F3F3F" d="M74.596,271.207C29.815,273.952,0,288.902,0,288.902s37.383,67.922,123.37,94.656
		c44.488,13.832,76.835,8.819,97.698,0.759c-26.033-1.537-62.894-12.259-101.645-51.011
		C99.139,313.021,84.776,291.486,74.596,271.207z"/>
	<path fill="#3F3F3F" d="M181.231,250.735c0-8.482,0.45-16.671,1.259-24.563c-57.733-43.511-117.614-44.667-117.614-44.667
		s1.486,77.516,65.16,141.189c39.34,39.34,75.854,46.836,98.023,46.822C209.593,353.754,181.231,318.514,181.231,250.735z"/>
	<path fill="#3F3F3F" d="M425.404,271.207c-10.18,20.279-24.543,41.815-44.828,62.099c-38.75,38.75-75.612,49.474-101.644,51.011
		c20.863,8.06,53.21,13.073,97.698-0.759C462.617,356.823,500,288.902,500,288.902S470.185,273.952,425.404,271.207z"/>
	<path fill="#3F3F3F" d="M435.124,181.505c0,0-59.881,1.156-117.614,44.667c0.809,7.892,1.259,16.08,1.259,24.563
		c0,67.779-28.362,103.02-46.828,118.782c22.169,0.013,58.684-7.483,98.023-46.822C433.637,259.021,435.124,181.505,435.124,181.505
		z"/>
	<path fill="#3F3F3F" d="M250,104.825c0,0-53.761,55.863-53.761,145.91S250,366.629,250,366.629s53.761-25.847,53.761-115.894
		S250,104.825,250,104.825z"/>
	<path fill="#3F3F3F" d="M197.743,163.194c-28.182-25.688-53.501-36.058-53.501-36.058s-8.017,21.944-9.235,55.363
		c15.664,6.215,32.722,14.846,49.813,26.824C187.813,192.238,192.431,176.803,197.743,163.194z"/>
	<path fill="#3F3F3F" d="M365.031,182.483c-1.22-33.41-9.234-55.347-9.234-55.347s-25.336,10.378-53.529,36.085
		c5.308,13.602,9.922,29.028,12.911,46.102C332.284,197.335,349.357,188.7,365.031,182.483z"/>
</g>
<g>
</g>
<g>
</g>
<g>
</g>
<g>
</g>
<g>
</g>
<g>
</g>
</svg>
