<?xml version="1.0" encoding="utf-8"?>
<!-- Generator: Adobe Illustrator 27.4.0, SVG Export Plug-In . SVG Version: 6.00 Build 0)  -->
<svg version="1.2" baseProfile="tiny" xmlns="http://www.w3.org/2000/svg" xmlns:xlink="http://www.w3.org/1999/xlink" x="0px"
	 y="0px" viewBox="0 0 2000 2000" overflow="visible" xml:space="preserve">
<g id="Layer_2">
</g>
<g id="Layer_1">
	<path fill-rule="evenodd" d="M1066.035,742.144c-17.051,33.407-88.792,31.104-125.347,24.486
		c-67.949-12.243-111.004-47.545-137.415-112.494c-12.332-30.403-1.954-34.455,37.895-70.863
		c7.522-6.881,17.083-15.014,27.051-22.709c20.988-16.207,43.784-30.432,52.997-26.643c-4.577,13.378-28.626,183.532,86.024,207.668
		c2.011,0.409,4.051,0.758,6.064,0.992c13.612,1.632,27.168-0.437,40.955-0.437H1066.035z"/>
	<path fill-rule="evenodd" d="M1874.768,17.951c-5.336,21.689-15.104,42.881-23.208,63.695
		c-11.485,29.444-26.906,58.883-45.619,84.332c-62.062,84.333-143.133,140.391-227.229,206.096
		c-48.654,37.984-87.511,86.607-124.216,135.813c-34.367,46.087-64.565,95.674-84.942,149.631
		c-9.763,25.943-22.941,75.238-32.066,153.684c-2.011-0.089-12.183,0.29-15.247,0.757c-1.487-7.172-14.544-63.345-23.584-82.147
		c-0.201-0.934-0.347-1.546-0.495-1.807c-40.167-82.963-108.761-144.879-192.073-183.358
		c-57.546-26.557-115.028-50.023-175.839-68.271c-158.783-47.602-335.348-88.56-477.167-177.295
		C347.587,233.084,261.417,141.172,208.539,28.125c-4.111-8.805-9.24-29.967,12.183-20.348c2.159,1.34,4.315,2.741,6.442,4.14
		c19.297,15.391,130.975,112.114,179.248,145.636c0.087,0.059,0.205,0.146,0.351,0.263c0.262,0.175,0.554,0.379,0.816,0.553
		c0.905,0.613,2.186,1.488,3.848,2.595c2.216,1.456,4.256,2.768,6.093,3.847c171.027,101.533,347.01,118.936,420.121,128.44
		c134.561,17.52,271.652,12.302,406.971,10.085c11.693-0.175,23.353-0.495,35.013-0.904c76.346-2.741,142.371-12.301,217.493-28.246
		c23.641-5.015,47.196-12.128,69.993-20.901c0.027-0.032,0.083-0.032,0.116-0.058c11.395-4.373,22.591-9.183,33.492-14.314
		c12.68-5.946,24.954-12.738,36.878-20.056c117.942-72.527,154.06-133.014,169.363-152.341
		c15.305-19.358,28.978-41.948,46.439-59.381c1.37-1.34,2.738-2.712,4.14-4.052C1871.766-7.06,1876.602,10.429,1874.768,17.951z"/>
	<linearGradient id="SVGID_1_" gradientUnits="userSpaceOnUse" x1="124.8604" y1="1170.4504" x2="1783.4271" y2="1170.4504">
		<stop  offset="0" style="stop-color:#020202"/>
		<stop  offset="0.2741" style="stop-color:#060606"/>
		<stop  offset="0.5731" style="stop-color:#141413"/>
		<stop  offset="0.8827" style="stop-color:#292928"/>
		<stop  offset="0.9943" style="stop-color:#333332"/>
	</linearGradient>
	<path fill="url(#SVGID_1_)" d="M1387.018,1203.708c-237.094-66.352-527.442-5.289-717.832-60.066
		c-429.868-123.683-355.92-458.774-355.92-458.774l0.006-0.007c-1.715-73.885,22.927-151.847,60.945-208.494
		c29.413-43.826,70.596-73.791,108.105-109.863c7.775-7.478,18.426-20.966,13.89-24.662c-4.944-4.026-25.987,5.711-40.46,13.179
		c-99.418,51.284-179.653,133.577-241.871,225.727c-35.175,52.101-63.832,110.809-77.468,172.419
		c-31.234,141.127,1.607,297.306,89.549,412.395c107.45,140.625,287.624,194.9,458.096,192.986
		c154.973-1.737,305.905-48.381,461.217-45.474c80.979,1.517,229.278,24.064,300.8,62.651
		c193.385,104.336,332.279,308.801,312.729,605.237c-0.429,6.491-1.05,12.802-1.768,19.035c0-0.005,0.005-0.007,0.005-0.017
		c23.739-94.329,35.093-197.101,18.599-305.823C1761.443,1600.575,1712.796,1294.88,1387.018,1203.708z"/>
	
		<linearGradient id="SVGID_00000124158646403015861100000011847549703439734178_" gradientUnits="userSpaceOnUse" x1="630.0301" y1="36.697" x2="1668.3555" y2="544.1297">
		<stop  offset="0.0057" style="stop-color:#4C4C4B"/>
		<stop  offset="0.1396" style="stop-color:#353534"/>
		<stop  offset="0.3128" style="stop-color:#1E1E1E"/>
		<stop  offset="0.501" style="stop-color:#0E0E0E"/>
		<stop  offset="0.7132" style="stop-color:#050505"/>
		<stop  offset="1" style="stop-color:#020202"/>
	</linearGradient>
	<path fill="url(#SVGID_00000124158646403015861100000011847549703439734178_)" d="M1567.111,253.286
		c-207.698,102.959-256.587,194.289-256.587,194.289s-31.103-62.208-354.734-91.359
		c-280.605-25.273-506.961-170.151-544.361-195.251c2.216,1.456,4.256,2.768,6.093,3.847
		c171.027,101.533,347.01,118.936,420.121,128.44c134.561,17.52,271.652,12.302,406.971,10.085
		c11.693-0.175,23.353-0.495,35.013-0.904c76.346-2.741,142.371-12.301,217.493-28.246
		C1520.759,269.172,1544.314,262.059,1567.111,253.286z"/>
	
		<linearGradient id="SVGID_00000119117812220313682330000005692046519198215867_" gradientUnits="userSpaceOnUse" x1="868.2191" y1="637.9415" x2="1013.3037" y2="637.9415">
		<stop  offset="0.0057" style="stop-color:#333332"/>
		<stop  offset="0.33" style="stop-color:#30302F"/>
		<stop  offset="0.5847" style="stop-color:#262625"/>
		<stop  offset="0.815" style="stop-color:#151515"/>
		<stop  offset="1" style="stop-color:#020202"/>
	</linearGradient>
	<path fill="url(#SVGID_00000119117812220313682330000005692046519198215867_)" d="M1013.304,742.581
		c0,0-99.231-1.573-128.381-107.479c-8.833-32.094-13.932-56.349-16.703-74.538c20.988-16.207,43.784-30.432,52.997-26.643
		c-4.577,13.378-28.626,183.532,86.024,207.668C1009.25,741.997,1011.29,742.346,1013.304,742.581z"/>
</g>
</svg>
