<?xml version="1.0" encoding="utf-8"?>
<!-- Generator: Adobe Illustrator 27.4.0, SVG Export Plug-In . SVG Version: 6.00 Build 0)  -->
<svg version="1.2" baseProfile="tiny" id="Ñëîé_1"
	 xmlns="http://www.w3.org/2000/svg" xmlns:xlink="http://www.w3.org/1999/xlink" x="0px" y="0px" viewBox="0 0 1000 1000"
	 overflow="visible" xml:space="preserve">
<g>
	<g>
		<g>
			<path fill="#040000" d="M643.695,519.689c-6.284,3.949-25.934-2.016-31.625-5.511c-4.964-3.045-6.388-7.249-9.937-11.314
				c-3.516-4.031-8.623-6.048-13.259-8.458c16.358-4.918,27.513-24.061,33.789-38.565c8.328-19.25,10.937-40.598,10.776-61.421
				c-0.093-11.833-1.926-22.576-5.544-32.292c-6.374-17.123-18.289-31.058-35.975-42.158c-5.806-3.645-17.09-12.572-23.74-12.153
				c4.959,10.959,23.251,22.743,15.227,36.297c-0.984,1.661-7.494,9.119-9.653,8.109c25.358,11.848,35.929,39.129,35.898,65.804
				c-0.03,22.302-13.273,48.831-32.349,60.984c-4.735,3.016-10.434,4.351-14.396,7.46c5.888,3.194,14.975,24.979,13.15,32.214
				c-18.759-0.463-41.412,8.619-59.775,13.933c-18.028,5.213-42.771,10.697-50.981,30.627c15.912-8.358,33.307-16.486,51.186-20.001
				c6.177-1.216,21.358-4.713,26.97-0.989c6.003,3.978,9.85,21.573,8.934,27.868c-2.128-0.847-5.503-1.109-7.713-2.374
				c-0.582,9.878-0.691,14.339-8.279,20.914c-7.503,6.5-12.757,8.739-14.486,19.694c-1.137,7.193-0.383,16.225,0.022,23.489
				c0.3,5.458,3.096,10.026,5.079,14.759c0.022-0.007,0.041-0.018,0.063-0.025c-0.59-4.328-0.76-8.867,0.287-11.997
				c2.489-7.468,10.784-8.814,15.366-15.307c9.866-13.971-6.429-33.852,17.052-34.569c0.268-5.402-2.47-17.717,1.836-18.737
				c-1.317,20.446,18.71-3.306,22.06-8.253c4.339-6.407,12.806-10.127,20.606-10.968c-8.243-1.43-16.448-7.055-14.388-16.031
				C609.824,529.708,625.971,530.827,643.695,519.689z"/>
		</g>
		<g>
			<path fill="#040000" d="M611.592,546.862c-2.249-0.354-4.743-0.388-7.309-0.113C606.816,547.19,609.349,547.24,611.592,546.862z"
				/>
		</g>
		<g>
			<path fill="#040000" d="M797.614,429.735c-0.093-3.325-0.702-6.384-1.055-9.609c-1.653-15.161-1.861-30.196-4.473-45.323
				c-3.743-21.698-10.53-42.851-20.005-62.722c-3.598-7.549-7.585-14.912-11.931-22.056c-12.09-19.858-27.022-38.058-44.382-53.887
				c-4.456-4.063-40.483-36.246-45.213-33.295c9.754-6.083,18.844-16.477,30.948-17.96c-7.587-9.623-31.256-13.992-44.491-13.209
				c14.53-15.698,14.404-33.224,13.016-54.014c-9.942,4.152-25.224,6.066-33.42,12.807c5.341-9.892,5.03-22.914,4.546-34.271
				c-9.642,7.908-19.699,16.298-28.634,23.677c5.59-16.36,15.008-29.023,17.932-46.956c2.317-14.244,5.607-29.062,4.582-43.945
				c-5.76,9.448-21.063,13.68-28.915,21.244C610.163,36.681,606.253,9.702,606.4,0c-7.896,19.91-25.117,32.726-39.887,47.161
				c-14.631,14.296-27.598,30.377-37.546,48.29c-9.076,16.35-19.262,37.897-21.519,56.632c-0.94,7.8-2.973,15.561-3.601,23.389
				c-0.913,11.33-1.735,22.707-3.714,33.83c1.881-3.944,4.154-7.796,5.353-10.869c2.653-6.78,4.257-13.662,6.344-20.561
				c3.596-11.866,6.836-24.022,10.557-35.557c4.172-12.942,10.098-25.859,17.768-36.627c4.022-5.649,8.549-11.113,13.565-16.094
				c1.65-1.638,13.888-17.974,15.145-17.945c0.063-0.068,0.123-0.137,0.183-0.205c-4.189,16.093-14.464,32.475-21.084,48.05
				c-5.322,12.509-8.401,26.194-9.625,39.714c4.085-4.682,5.579-12.763,8.442-18.145c7.158-13.445,15.877-26.815,24.109-39.67
				c4.183-6.533,8.765-12.845,14.137-18.46c2.604-2.719,18.125-12.102,18.571-14.44c-4.273,22.362-7.432,42.58-21.74,62.126
				c-11.216,15.324-32.002,36.409-28.363,57.577c7.145-9.259,10.358-19.539,20.194-26.86c8.587-6.391,21.664-13.105,31.259-15.91
				c-0.044,6.331-4.97,10.309-5.779,16.691c8.074-2.172,15.871-5.488,22.716-10.269c-7.008,11.463-17.106,22.168-26.196,31.766
				c-4.317,4.561-13.751,16.202-21.737,21.605c22.046-8.22,48.68-11.647,71.999-10.269c1.839,0.108-2.404,10.168-2.877,10.955
				c-2.153,3.589-5.063,6.097-8.464,8.589c-7.24,5.311-15.511,9.112-22.106,15.313c3.076-0.275,6.158-2.851,8.891-4.003
				c4.098-1.725,7.555-2.407,11.877-3.042c8.442-1.235,14.724-5.169,21.975-7.99c1.762,15.259,23.562,23.363,34.606,30.368
				c32.628,20.698,56.365,51.722,73.193,86.101c7.194,14.697,13.229,29.935,18.59,45.386c5.481,15.794,11.273,32.222,13.639,48.769
				c0.399,2.781,1.022,5.342,1.273,8.104c0.186,2.049,0.046,5.434,1.232,7.143C796.543,438.859,797.68,432.007,797.614,429.735z"/>
		</g>
		<g>
			<path fill="#040000" d="M240.511,226.038c-0.201-0.88-0.406-1.76-0.607-2.639c-0.158,0.695-0.311,1.395-0.47,2.091
				C239.822,225.613,240.183,225.795,240.511,226.038z"/>
		</g>
		<g>
			<path fill="#040000" d="M394.773,527.821c-6.972,0.911-13.929,1.805-20.829,3.179c-12.831,2.559-26.3,6.214-37.041,14
				c-1.839-13.43-2.224-32.511,0.426-45.775c-4.653,1.869-8.796,4.882-13.311,6.846c0.566-15.751,9.609-32.901,16.229-46.591
				c-4.66,9.638-24.739,16.268-33.461,21.711c-11.09,6.923-13.165,19.005-12.548,32.228c-1.609-34.375-8.899-69.931-40.823-89.346
				c5.197-0.859,12.019-1.541,16.337-2.918c-15.971-9.288-34.568-17.759-40.488-38.068c5.514-0.433,8.992,3.469,13.993,3.589
				c2.268-14.13-10.5-31.172-12.404-44.967c3.496-0.219,7.131-0.056,10.639-0.275c0.716-19.483-5.913-36.791-8.813-54.886
				c0.608,3.792,12.813-6.649,13.466-7.385c4.527-5.113,6.285-10.332,8.855-16.743c-1.81,4.518-7.971,9.541-13.005,9.287
				c-5.21-0.265-8.255-5.402-11.332-9.022c-7.809-9.195-10.818-19.78-10.725-31.748c0.183-23.414,11.1-47.29,5.257-70.652
				c5.035,21.007,9.906,42.053,14.71,63.114c1.914-8.492,3.708-16.998,6.046-25.389c-0.932,7.96,2.559,14.483,3.671,21.946
				c0.682,4.574,0.407,8.947,2.078,13.228c-0.512-1.31,3.087-11.647,4.341-12.117c2.586-0.967,2.8,1.88,3.985,4.01
				c4.217,7.589,3.867,17.243,3.867,25.579c1.825-20.65,26.883-43.083,42.855-54.43c14.317-10.176,31.388-20.258,48.019-26.001
				c17.079-5.899,35.174-7.852,52.871-11.038c15.065-2.713,30.129-5.451,45.264-7.754c7.593-1.156,15.202-2.21,22.828-3.098
				c5.833-0.682,16.102-3.695,21.722-2.067c-16.706-4.839-34.363-4.15-51.402-1.688c-15.601,2.255-31.317,3.996-46.945,6.313
				c-23.392,3.47-45.45,7.647-69.197,7.702c-19.643,0.045-32.586-3.641-41.837-20.132c-1.635,2.985-5.09,5.613-7.302,8.22
				c-17.034-15.397-31.831-38.594-29.112-62.749c-3.463,2.315-6.486,6.641-9.259,9.452c-0.914-15.803,5.039-30.027,4.408-44.09
				c-6.718,7.033-15.768,15.161-16.945,25.735c-2.123-7.47-3.755-19.161-7.932-25.826c-0.441,6.6-0.24,13.46-0.24,20.162
				c0,24.92-4.352,44.569-10.848,67.52c-6.173,21.819-6.034,43.006-6.034,66.323c0,25.744,2.622,46.96,11.217,69.909
				c3.026,8.081,25.097,64.226,2.473,60.432c-0.542,10.598,3.497,27.158,6.988,33.644c-4.239,0.194-8.288-0.581-12.113-2.29
				c4.814,9.199,11.095,22.845,12.987,33.461c-8.169,0.428-17.273,3.695-24.135,6.214c7.731-2.837,38.377,23.625,44.367,28.702
				c13.951,11.82,18.131,21.691,25.516,37.4c-23.727,5.012-44.59,29.056-48.693,53.081c-1.664,2.745-3.216,5.529-4.607,8.344
				c-6.445,12.993-10.333,26.487-12.814,39.83c-2.459,13.363-3.504,26.646-3.728,39.777c-0.21,13.131,0.419,26.12,1.606,38.975
				c2.403,25.703,6.97,50.881,12.81,75.637c5.869,24.752,13.038,49.088,21.4,72.998c4.191,11.951,8.687,23.795,13.613,35.489
				c2.467,5.85,5.042,11.657,7.8,17.415c2.771,5.794,5.746,11.365,8.705,16.929c23.875,44.475,52.079,85.839,74.249,130.844
				c-19.095-46.394-44.661-89.982-65.189-135.319c-2.549-5.68-5.101-11.354-7.356-17.027c-2.279-5.709-4.398-11.514-6.414-17.36
				c-4.025-11.695-7.637-23.563-10.944-35.505c-6.594-23.895-11.986-48.118-16.056-72.461c-4.041-24.34-6.776-48.842-7.4-73.147
				c-0.578-24.237,0.876-48.502,6.53-70.815c2.838-11.106,6.796-21.651,12.152-30.78c5.344-9.142,12.093-16.716,20.053-22.115
				c5.541-3.78,11.703-6.525,18.332-8.361c3.432,13.35,3.452,29.822,6.956,38.848c9.255,23.826,30.11,46.294,55.048,54.115
				c-1.575-0.495,0.317-13.303,0.728-15.236c1.28-6.005,1.989-11.866,5.21-17.25c3.388-5.663,8.21-10.88,13.486-14.855
				c-0.684,1.523-1.127,3.223-1.139,4.914c4.858-4.214,10.255-7.848,14.96-12.071c4.195-3.762,6.37-9.367,10.224-13.098
				c0.367,1.889,0.046,3.988-0.803,5.701c6.074-2.359,10.306-6.09,13.188-11.617c2.358-4.522,4.161-9.564,7.563-13.358
				c-0.418,0.467-7.238,2.078-8.565,2.6C400.186,526.91,397.833,527.422,394.773,527.821z"/>
		</g>
		<g>
			<path fill="#040000" d="M468.426,495.314c-1.669-9.202-1.996-21.213,3.768-19.937c4.867,1.076,9.067,10.877,12.004,14.332
				c3.633,4.266,8.027,8.46,12.122,12.742c-4.269-6.281-10.187-18.858-10.421-27.802c6.525-0.689,13.651,8.471,19.033,11.672
				c4.046,2.406,10.246,4.751,15.221,7.337c-3.612-3.515-7.139-8.128-9.997-10.729c-4.295-3.91-18.563-24.618-5.063-25.091
				c8.268-0.294,16.265,9.351,23.896,11.748c-8.205-4.729-17.027-14.25-15.404-24.552c5.101-0.179,10.298-0.087,15.432-0.049
				c-7.524-0.056-11.172-3.624-9.828-9.888c1.858-8.652,5.383-15.564,4.563-24.961c-10.344,44.639-56.989,65.891-97.68,43.829
				c-12.574-6.817-16.295-15.345-20.71-28.101c11.192-0.749,14.643,5.444,24.328,9.294c5.294,2.102,10.986,3.833,16.748,4.254
				c11.553,0.847,23.27-1.936,33.882-5.865c25.233-9.34,29.241-32.51,25.396-56.626c4.29-0.277,7.891-1.369,11.814-1.751
				c-8.664-0.801-16.557-3.15-25.741-3.15c-8.005,0-15.697,0.108-23.527-0.602c-10.05-0.911-21.8,0.746-31.243-2.633
				c-0.766-14.809,8.964-18.962,20.962-23.349c5.699-2.083,11.366-5.314,17-8.294c4.205-2.224,9.413-6.915,14.212-7.94
				c-6.723,0.051-13.613,0.353-20.295-0.107c12.589-11.445,24.962-21.512,42.278-24.246c15.891-2.511,32.636-1.342,48.445,1.269
				c-11.803-10.962-28.196-13.423-43.674-14.084c-8.035-0.344-13.751,0.861-19.719-5.298c-1.24-1.283-12.165-16.84-11.12-17.483
				c-2.445,1.508-3.199,10.915-3.869,14.318c-0.956,4.857-2.526,9.412-5.078,13.78c-2.796,4.791-5.963,7.829-10.097,11.217
				c-2.739,2.245-8.085,5.161-9.274,8.427c2.04-9.255,0.53-22.715-4.261-31.464c-3.926,8.833-4.602,18.392-10.403,26.699
				c-4.956,7.101-13.171,12.304-15.078,20.885c-6.198-8.37-11.198-34.549-26.18-34.789c7.273,21.52,19.733,68.345,0.988,87.089
				c-8.742,8.74-18.329,16.278-26.558,25.812c-5.229,6.059-10.29,12.117-15.291,18.568c-4.081,5.264-9.784,10.803-10.854,17.638
				c0.272-1.734,13.12-9.941,15.311-11.586c7.951-5.974,16.43-14.191,25.884-7.003c16.365,12.445,6.671,34.188-1.007,48.453
				c2.693-5.001,14.459-18.972,20.779-18.333c12.429,1.25,10.612,18.001,8.557,31.429c2.865-9.88,8.903-19.955,16.835-20.453
				c16.28-1.025,15.548,21.973,15.884,32.199c-0.12-3.687,1.918-29.136,6.535-29.384c3.46-0.191,7.729,12.979,10.485,22.567
				C468.418,495.318,468.421,495.318,468.426,495.314z M410.408,399.845c1.234-8.65,9.168-11.533,15.597-15.744
				c0.69,14.559,7.904,29.19,24.573,27.572c6.415-0.626,12.794-3.203,16.851-8.389c3.414-4.363,4.537-8.825,3.897-13.425
				c-0.321-2.317-1.09-4.668-2.239-7.057c9.978,0.049,18.703-1.004,28.814,1.355c0.624,11.407-0.275,20.8-6.613,30.363
				c-3.264,4.925-10.044,8.333-15.039,11.311c-7.335,4.374-17.254,7.083-25.759,7.083c-11.042,0-20.651-4.264-29.389-10.601
				C414.287,417.368,409.17,408.543,410.408,399.845z"/>
		</g>
	</g>
</g>
<g>
</g>
<g>
</g>
<g>
</g>
<g>
</g>
<g>
</g>
<g>
</g>
</svg>
