<?xml version="1.0" encoding="utf-8"?>
<!-- Generator: Adobe Illustrator 27.4.0, SVG Export Plug-In . SVG Version: 6.00 Build 0)  -->
<svg version="1.2" baseProfile="tiny" id="Layer_1" xmlns="http://www.w3.org/2000/svg" xmlns:xlink="http://www.w3.org/1999/xlink"
	 x="0px" y="0px" viewBox="0 0 2200 2200" overflow="visible" xml:space="preserve">
<g>
	<path fill-rule="evenodd" fill="#3E3938" d="M304.969,1901.288c447.749-107.198,798.382-208.088,1052.174-302.671
		C863.731,1840.327,411.266,2017.928,0,2131.696c1284.184-60.425,1995.168-338.132,2132.693-833.386
		c16.275,21.546,24.413,41.777,24.675,60.169c70.073-261.685,53.797-489.735-49.085-683.896
		c-62.988-155.27-167.444-289.793-312.844-403.817c-23.36,0,0,0,69.817,0c-200.254-208.612-410.479-257.744-630.94-147.393
		c26.246,18.655,47.241,40.46,63.516,64.631c-214.689-108.77-372.159-76.982-471.889,95.9
		c174.529-31.792,286.857-27.327,337.51,12.871c-94.22-9.983-160.619-5.779-199.198,12.876
		c162.193,55.436,267.174,122.695,315.465,201.777l2.365,155.277c85.82-29.689,138.575-79.875,157.733-150.022
		c12.07,61.218-55.113,157.638-201.562,289.793C977.9,1003.524,809.93,1221.069,734.081,1458.841l44.092-20.755
		C669.256,1640.126,511.521,1794.615,304.969,1901.288L304.969,1901.288z"/>
</g>
<g>
</g>
<g>
</g>
<g>
</g>
<g>
</g>
<g>
</g>
<g>
</g>
</svg>
