<?xml version="1.0" encoding="utf-8"?>
<!-- Generator: Adobe Illustrator 27.4.0, SVG Export Plug-In . SVG Version: 6.00 Build 0)  -->
<svg version="1.2" baseProfile="tiny" id="katman_1"
	 xmlns="http://www.w3.org/2000/svg" xmlns:xlink="http://www.w3.org/1999/xlink" x="0px" y="0px" viewBox="0 0 894 1117"
	 overflow="visible" xml:space="preserve">
<path d="M837.69,0c-13.51,52.2-42.87,105.06-91.32,132.93v-13.87c-5.92,6.11-10.1,13.24-17.34,18.08c-1.82,1.22-6.7,5.09-8.55,2.11
	c-2.45-3.95,0.67-28.04-6.48-28.04c-2.96,0-4.53,6.96-5.56,9.01c-3.91,7.79-9.27,13.61-16.4,18.49l-4.62-9.25l-19.65,32.37h-1.16
	l1.16-12.71c-18.37,14.42-15.03,46.6-15.03,67.04c-1.82-1.29-6.73-5.94-9.21-4.33c-2.24,1.45-1.16,7.8-1.57,10.11
	c-1.29,7.31-6.57,13.1-9.72,19.65c-7.92,16.51-4.2,35.5-4.97,53.17c-0.58,13.18-4.39,26.39-6.89,39.3h-1.16l-10.02-32.37
	l-0.48-38.14l-7.99-32.37c-22.6,16.64-21.84,45.33-32.74,68.2c-4.41,9.24-13.65,14.12-19.83,21.96
	c-10.07,12.78-13.03,24.83-14.8,40.46c-1.83,16.12,2.99,28.22-4.59,43.92c-1.26,2.61-4.26,11.49-7.86,11.49
	c-3.22,0-8.09-12.37-9.65-14.96c-8.81-14.68-19.33-27.54-31.9-39.2c-17.07-15.82-31.41-30.16-34.68-54.43
	c-5.14,3.86-5.91,13.6-5.27,19.65c0.2,1.87,1.72,7.71-1.2,8.37c-11.25,2.54-32.5-44.6-32.82-17.62c-0.03,2.31-0.04,4.63,0.01,6.94
	c0.09,3.89,0.83,7.69,1.14,11.56l-64.73-13.62l-20.72-11.42l6.85,16.96C214.17,296.5,128.19,203.55,70.18,105.19h-1.16
	c9.8,52.6,33.82,102.59,67.04,144.49c-26.78-12.67-50.34-37.53-68.82-60.11c-7.8-9.53-14.42-27.17-24.81-33.52
	c11.2,45.45,35.94,87.6,68.24,121.37c13.46,14.07,29.86,24.77,43.88,38.14c-22.59-5.85-43.74-13.3-63.57-25.93
	c-9.01-5.74-16.15-15.6-25.43-20.3c3.16,16.36,21.02,33.68,32.37,45.08c33.94,34.11,82.77,71.32,131.77,79.76v1.16
	c-25.42,0-50.88-3.41-75.13-11.26c-11.1-3.59-21.25-11.62-32.37-14.17c3.53,10.38,14.81,18.33,23.12,24.97
	c23.45,18.73,53.94,32.99,83.22,39.76v1.16l-38.14,1.16c4.79,5.78,11.91,8.01,18.49,11.27c17.1,8.47,36.49,16.33,55.48,18.78v1.16
	c-7.83,0.34-21.92,1.06-26.59,8.09c10.46,1.33,21.05,3.68,28.52,11.76c5.3,5.73,7.53,13.67,13.31,19.07
	c3.11,2.91,12.88,4.38,14.57,7.27c1.41,2.4-4.28,4.17-5.54,4.67c11.77,16.36,29.79,14.68,47.39,15.9
	c15.46,1.07,24.46,5.1,40.46,1.44c-7.29,9.48-16.51,11.97-26.59,17.34v1.16l41.61-3.47l-10.4,9.25l34.68-2.31v1.16
	c-7.53,3.58-16.05,9.69-19.65,17.34c11.35-1.68,22.24-6.46,33.52-8.73c20.89-4.2,42.66-3.8,63.57-0.03
	c18.62,3.36,47.82,19.57,65.78,7.43c6.73-4.55,9.04-13.21,10.94-20.64c4.82-18.83,7.46-43.7-14.3-52.29
	c-24.33-9.61-48.64,2.34-72.82,0.08c-19.1-1.79-37.42-5.73-55.48-12.16c-14.55-5.18-30.4-13.91-46.24-13.02
	c-9.82,0.55-19.47,8.44-28.9,11.51l3.36-4.67c10.13-14.57-11.21,1.91-13.78,2.95c-2.17,0.88-7.07,2.14-6.07-1.92
	c6.4-25.92,46.26-20.56,65.04-19.52c34.27,1.91,68.53,8.96,102.87,8.12c16.76-0.41,33.18-5.21,49.7-7.58
	c10.97-1.57,31.05,4.8,40.3-0.53c5.92-3.41,6.4-14.8,0.99-18.9c-4.23-3.21-9.3,0.66-13.55,1.84c-5.47,1.52-11.41,0.27-16.18-2.72
	c-21.84-13.72-15.23-56.26,9.24-63.64c8.85-2.67,15,1.83,23.12,4.12c9.58,2.7,22.2,2.18,27.17,14.24c1.81,4.4-2.83,10.96-3.47,15.4
	c-1.03,7.15,1.97,14.89,2.88,21.96h1.16c2.33-17.19,18.32-27.95,20.6-45.08c3.51-26.34,1.75-54.23,3.57-80.91
	c0.72-10.49-0.25-22.28,3.11-32.37c7.99-24.02,38.58-24.93,43.23,1.16c-6.3-3.51-29.91-1.83-32.43,5.85
	c-8.18,24.86,9.23,55.52,9.31,80.84c0.11,35.44-21.56,66.79-16.18,102.87c1.83,12.23,8.47,23.22,8.72,35.83
	c0.19,9.7-6.51,16.83-9.73,25.43c-3.96,10.59-3.19,21.1-9.31,31.21c-23.11,38.14-66.49,58.61-78.13,104.03
	c-8.74,34.12,0.28,68.4-0.57,102.87c-0.85,34.88-13.76,67.27-16.06,101.72c-2.06,30.71,7.7,61.36,5.57,92.47
	c-1.68,24.59-6.52,48.49-14.99,71.67c-4.67,12.78-13.76,26.04-16.12,39.3c13.64-4.36,29.55-20.91,35.83-33.52h1.16
	c-3.92,18.93-11.32,37.09-19.94,54.33c-2.08,4.17-10.93,15.4-9.17,20.05c1.03,2.74,5.74-0.15,7.15-0.95
	c6.29-3.55,12.16-8.37,17.33-13.37c16.99-16.44,33.5-43.24,36.99-67h1.16c-0.05,16.37-4.55,33.37-10.4,48.55
	c8.57-4.01,13.27-13.07,18.13-20.81c13.52-21.57,20.98-44.5,25.8-69.35h1.16l-5.78,45.08c8.74-6.84,11.68-18.75,15.03-28.9
	c10.09-30.55,8.58-62.04-1.15-92.47c10.55,11.06,15.55,24.84,19.65,39.3h1.16c5.51-43.61-7.4-96.41-24.6-136.4
	c-13.94-32.4-36.87-57.32-29.21-94.78c4.29-20.97,13.68-41.76,26.4-58.95c16.58-22.4,36.07-39.95,45.8-67.04
	c6-16.7,10.42-35.37,10.51-53.17c0.04-7.35-4.4-23.72-0.35-29.81c2.92-4.39,9.91-6.37,14.23-9.14c7.92-5.1,15.11-11.1,20.56-18.84
	c4.97-7.06,8.4-14.6,9.93-23.12c0.78-4.35-0.49-10.93,2.57-14.45c11.49-13.21,31.66-9.14,36.29-30.63l-21.96,6.94v-1.16
	c18.56-8.01,35.15-28.3,38.14-48.55l-11.56,8.09c5.39-16.87,9.2-36.56,7.99-54.33c-1.33-19.56-7.34-38.17-4.02-57.79
	c5.82-34.36,30.57-64.12,35.33-99.41c-12.53,8.83-21.59,19.87-36.99,24.27v-1.16c24.51-11.23,44.3-41.79,54.33-65.89l-35.83,15.03
	c21.43-20.51,52.89-43.4,54.33-76.29L829.6,87.85c5.07-21.9,11.56-41.87,11.56-64.73C841.16,15.88,842.26,6,837.69,0 M674.71,270.48
	l5.78,1.16L674.71,270.48"/>
</svg>
